<svg xmlns="http://www.w3.org/2000/svg" width="1200" height="800" viewBox="0 0 1200 800" fill="none">
  <defs>
    <radialGradient id="rg" cx="0" cy="0" r="1" gradientUnits="userSpaceOnUse" gradientTransform="translate(600 400) rotate(90) scale(420 620)">
      <stop stop-color="#10B981" stop-opacity="0.18"/>
      <stop offset="0.55" stop-color="#22D3EE" stop-opacity="0.10"/>
      <stop offset="1" stop-color="#FFFFFF" stop-opacity="0"/>
    </radialGradient>
    <linearGradient id="lg" x1="220" y1="160" x2="980" y2="640" gradientUnits="userSpaceOnUse">
      <stop stop-color="#10B981" stop-opacity="0.9"/>
      <stop offset="1" stop-color="#22D3EE" stop-opacity="0.9"/>
    </linearGradient>
  </defs>

  <rect width="1200" height="800" fill="url(#rg)"/>
  <g stroke="rgba(255,255,255,0.10)" stroke-width="1">
    <path d="M140 170H420M420 170V120H560"/>
    <path d="M980 260H780M780 260V210H650"/>
    <path d="M200 520H470M470 520V620H620"/>
    <path d="M1050 560H810M810 560V640H680"/>
    <path d="M340 330H540M540 330V430H660"/>
    <path d="M860 380H660M660 380V300H560"/>
  </g>

  <g stroke="url(#lg)" stroke-width="2" stroke-linecap="round" opacity="0.75">
    <path d="M160 170H410"/>
    <path d="M200 520H460"/>
    <path d="M340 330H530"/>
    <path d="M1040 560H820"/>
    <path d="M980 260H790"/>
  </g>

  <g fill="rgba(255,255,255,0.12)" stroke="rgba(255,255,255,0.18)">
    <circle cx="420" cy="170" r="8"/>
    <circle cx="780" cy="260" r="8"/>
    <circle cx="470" cy="520" r="8"/>
    <circle cx="810" cy="560" r="8"/>
    <circle cx="540" cy="330" r="8"/>
    <circle cx="660" cy="380" r="8"/>
  </g>

  <g fill="rgba(0,0,0,0.25)" stroke="rgba(255,255,255,0.16)">
    <rect x="520" y="330" width="160" height="120" rx="18"/>
  </g>

  <g font-family="ui-monospace, SFMono-Regular, Menlo, Monaco, Consolas, Liberation Mono, Courier New, monospace" font-size="14" fill="rgba(255,255,255,0.52)">
    <text x="548" y="378">truth.json</text>
    <text x="548" y="402">events → outbox</text>
    <text x="548" y="426">export → ingest</text>
  </g>
</svg>
