<svg xmlns="http://www.w3.org/2000/svg" width="1600" height="900" viewBox="0 0 1600 900">
  <defs>
    <radialGradient id="glow" cx="50%" cy="35%" r="65%">
      <stop offset="0%" stop-color="#10b981" stop-opacity="0.28"/>
      <stop offset="40%" stop-color="#22c55e" stop-opacity="0.14"/>
      <stop offset="100%" stop-color="#000" stop-opacity="0"/>
    </radialGradient>
  </defs>
  <rect width="1600" height="900" fill="#09090b"/>
  <rect width="1600" height="900" fill="url(#glow)"/>
  <g stroke="#ffffff" stroke-opacity="0.07">
    <path d="M0 0H1600M0 48H1600M0 96H1600M0 144H1600M0 192H1600M0 240H1600M0 288H1600M0 336H1600M0 384H1600M0 432H1600M0 480H1600M0 528H1600M0 576H1600M0 624H1600M0 672H1600M0 720H1600M0 768H1600M0 816H1600M0 864H1600"/>
    <path d="M0 0V900M64 0V900M128 0V900M192 0V900M256 0V900M320 0V900M384 0V900M448 0V900M512 0V900M576 0V900M640 0V900M704 0V900M768 0V900M832 0V900M896 0V900M960 0V900M1024 0V900M1088 0V900M1152 0V900M1216 0V900M1280 0V900M1344 0V900M1408 0V900M1472 0V900M1536 0V900"/>
  </g>
  <g fill="#10b981" fill-opacity="0.35">
    <circle cx="260" cy="250" r="2"/>
    <circle cx="640" cy="410" r="2"/>
    <circle cx="980" cy="290" r="2"/>
    <circle cx="1240" cy="540" r="2"/>
    <circle cx="380" cy="690" r="2"/>
  </g>
</svg>
